{
  "accessors": [
    {
      "bufferView": 2,
      "componentType": 5126,
      "count": 33231,
      "max": [
        26.948535919189453,
        25.060871124267578,
        184.99998474121094
      ],
      "min": [
        -26.948535919189453,
        -25.060871124267578,
        0
      ],
      "type": "VEC3"
    },
    {
      "bufferView": 2,
      "byteOffset": 398772,
      "componentType": 5126,
      "count": 33231,
      "max": [
        0.9999382495880127,
        0.99998921155929565,
        0.99983507394790649
      ],
      "min": [
        -0.99989968538284302,
        -0.99999725818634033,
        -0.99999052286148071
      ],
      "type": "VEC3"
    },
    {
      "bufferView": 3,
      "componentType": 5126,
      "count": 33231,
      "max": [
        0.99983292818069458,
        0.9999006986618042,
        0.99999457597732544,
        1
      ],
      "min": [
        -0.99995154142379761,
        -0.99986815452575684,
        -0.99999004602432251,
        -1
      ],
      "type": "VEC4"
    },
    {
      "bufferView": 1,
      "componentType": 5126,
      "count": 33231,
      "max": [
        0.99804002046585083,
        0.9904400110244751
      ],
      "min": [
        0.0019499999471008778,
        0.0019499999471008778
      ],
      "type": "VEC2"
    },
    {
      "bufferView": 1,
      "byteOffset": 265848,
      "componentType": 5126,
      "count": 33231,
      "max": [
        0.99804002046585083,
        0.9904400110244751
      ],
      "min": [
        0.0019499999471008778,
        0.0019499999471008778
      ],
      "type": "VEC2"
    },
    {
      "bufferView": 0,
      "componentType": 5125,
      "count": 180018,
      "max": [
        33230
      ],
      "min": [
        0
      ],
      "type": "SCALAR"
    }
  ],
  "asset": {
    "extras": {
      "author": "Leandcoel (https://sketchfab.com/Leandcoel3d)",
      "license": "CC-BY-4.0 (http://creativecommons.org/licenses/by/4.0/)",
      "source": "https://sketchfab.com/3d-models/man-in-a-suit-scanned-model-94a820c49db24189a617a0b48061085a",
      "title": "Man in a suit. Scanned Model."
    },
    "generator": "Sketchfab-9.79.0",
    "version": "2.0"
  },
  "bufferViews": [
    {
      "buffer": 0,
      "byteLength": 720072,
      "byteOffset": 0,
      "name": "floatBufferViews",
      "target": 34963
    },
    {
      "buffer": 0,
      "byteLength": 531696,
      "byteOffset": 720072,
      "byteStride": 8,
      "name": "floatBufferViews",
      "target": 34962
    },
    {
      "buffer": 0,
      "byteLength": 797544,
      "byteOffset": 1251768,
      "byteStride": 12,
      "name": "floatBufferViews",
      "target": 34962
    },
    {
      "buffer": 0,
      "byteLength": 531696,
      "byteOffset": 2049312,
      "byteStride": 16,
      "name": "floatBufferViews",
      "target": 34962
    }
  ],
  "buffers": [
    {
      "byteLength": 2581008,
      "uri": "scene.bin"
    }
  ],
  "images": [
    {
      "uri": "textures/GTP_BMan_Jack_07_Stg_Lsn_Adl_Ccs_Gry_Mgr_BlendMaterial_baseColor.jpeg"
    },
    {
      "uri": "textures/GTP_BMan_Jack_07_Stg_Lsn_Adl_Ccs_Gry_Mgr_BlendMaterial_normal.png"
    }
  ],
  "materials": [
    {
      "doubleSided": true,
      "emissiveFactor": [
        0,
        0,
        0
      ],
      "name": "GTP_BMan_Jack_07_Stg_Lsn_Adl_Ccs_Gry_Mgr_BlendMaterial",
      "normalTexture": {
        "index": 1,
        "scale": 1,
        "texCoord": 0
      },
      "pbrMetallicRoughness": {
        "baseColorFactor": [
          1,
          1,
          1,
          1
        ],
        "baseColorTexture": {
          "index": 0,
          "texCoord": 0
        },
        "metallicFactor": 0,
        "roughnessFactor": 0.89297135964975516
      }
    }
  ],
  "meshes": [
    {
      "name": "GTP_BMan_Jack_07_Stg_Lsn_Adl_Ccs_Gry_Mgr_GTP_BMan_Jack_07_Stg_Lsn_Adl_Ccs_Gry_Mgr_BlendMaterial_0",
      "primitives": [
        {
          "attributes": {
            "NORMAL": 1,
            "POSITION": 0,
            "TANGENT": 2,
            "TEXCOORD_0": 3,
            "TEXCOORD_1": 4
          },
          "indices": 5,
          "material": 0,
          "mode": 4
        }
      ]
    }
  ],
  "nodes": [
    {
      "children": [
        1
      ],
      "name": "RootNode (gltf orientation matrix)",
      "rotation": [
        -0.70710678118654746,
        -0,
        -0,
        0.70710678118654757
      ]
    },
    {
      "children": [
        2
      ],
      "matrix": [
        1,
        8.3266726846886741e-17,
        3.1103250993502881e-16,
        0,
        -8.3266726846886741e-17,
        1,
        1.6081226229577292e-16,
        0,
        -3.1103250993502881e-16,
        -1.6081226229577292e-16,
        1,
        0,
        2.8770483716765438e-14,
        2.0204188799430312e-14,
        0,
        1
      ],
      "name": "RootNode (model correction matrix)"
    },
    {
      "children": [
        3
      ],
      "matrix": [
        1,
        0,
        0,
        0,
        0,
        0,
        1,
        0,
        0,
        -1,
        0,
        0,
        0,
        0,
        0,
        1
      ],
      "name": "GTP_BMan_Jack_07_Stg_Lsn_Adl_Ccs_Gry_Mgr.fbx"
    },
    {
      "children": [
        4
      ],
      "name": "RootNode"
    },
    {
      "children": [
        5
      ],
      "matrix": [
        1,
        0,
        0,
        0,
        0,
        2.2204460492503131e-16,
        -1,
        0,
        0,
        1,
        2.2204460492503131e-16,
        0,
        0,
        0,
        0,
        1
      ],
      "name": "GTP_BMan_Jack_07_Stg_Lsn_Adl_Ccs_Gry_Mgr"
    },
    {
      "mesh": 0,
      "name": "GTP_BMan_Jack_07_Stg_Lsn_Adl_Ccs_Gry_Mgr_GTP_BMan_Jack_07_Stg_Lsn_Adl_Ccs_Gry_Mgr_BlendMaterial_0"
    }
  ],
  "samplers": [
    {
      "magFilter": 9729,
      "minFilter": 9987,
      "wrapS": 10497,
      "wrapT": 10497
    }
  ],
  "scene": 0,
  "scenes": [
    {
      "name": "OSG_Scene",
      "nodes": [
        0
      ]
    }
  ],
  "textures": [
    {
      "sampler": 0,
      "source": 0
    },
    {
      "sampler": 0,
      "source": 1
    }
  ]
}

